<?xml version="1.0" standalone="no"?>
<!DOCTYPE svg PUBLIC "-//W3C//DTD SVG 20010904//EN"
 "http://www.w3.org/TR/2001/REC-SVG-20010904/DTD/svg10.dtd">
<svg version="1.0" xmlns="http://www.w3.org/2000/svg"
 width="74.000000pt" height="74.000000pt" viewBox="0 0 74.000000 74.000000"
 preserveAspectRatio="xMidYMid meet">
<metadata>
Created by potrace 1.14, written by Peter Selinger 2001-2017
</metadata>
<g transform="translate(0.000000,74.000000) scale(0.100000,-0.100000)"
fill="#000000" stroke="none">
<path d="M65 606 c-18 -13 -20 -28 -20 -203 0 -180 -1 -188 -20 -194 -25 -7
-24 -55 2 -75 27 -20 326 -20 343 1 10 13 -9 15 -154 17 -232 4 -220 23 15 24
152 2 184 4 197 18 15 15 2 16 -166 16 -100 0 -183 3 -183 8 -7 39 -3 350 4
360 14 18 562 18 574 0 4 -7 8 -48 8 -90 1 -42 4 -80 7 -84 17 -17 24 13 23
97 -1 77 -4 94 -20 105 -28 21 -583 20 -610 0z"/>
<path d="M558 369 c-45 -23 -68 -63 -68 -117 0 -34 -7 -46 -65 -105 -36 -37
-66 -72 -66 -79 -4 -40 18 -68 53 -68 10 0 51 31 90 70 62 59 77 69 103 66 46
-5 83 13 110 52 24 36 31 79 17 114 -6 15 -13 11 -50 -23 -74 -68 -116 -24
-47 49 22 23 31 40 25 46 -17 17 -64 15 -102 -5z m29 -47 c-24 -25 -26 -31
-16 -64 8 -32 15 -38 45 -44 30 -5 40 -2 65 22 33 31 36 27 13 -21 -18 -38
-59 -57 -104 -49 -24 5 -36 -1 -83 -47 -85 -84 -93 -90 -110 -83 -23 8 -11 28
66 105 58 58 64 67 60 97 -9 58 26 109 76 111 10 1 5 -9 -12 -27z"/>
</g>
</svg>
